<?xml version="1.0" encoding="UTF-8"?>
<svg id="Layer_1" xmlns="http://www.w3.org/2000/svg" version="1.1" viewBox="0 0 512 512">
  <!-- Generator: Adobe Illustrator 30.3.0, SVG Export Plug-In . SVG Version: 2.1.3 Build 157)  -->
  <defs>
    <style>
      .st0 {
        fill: #fff;
      }

      .st1 {
        fill: #5100d7;
      }
    </style>
  </defs>
  <rect class="st1" x="20" y="20" width="472" height="472" rx="111.43" ry="111.43"/>
  <path class="st0" d="M124,160v78h70c5.52,0,10,4.48,10,10v16c0,5.52-4.48,10-10,10h-70v78h90c5.52,0,10,4.48,10,10v16c0,5.52-4.48,10-10,10h-116c-5.52,0-10-4.48-10-10v-244c0-5.52,4.48-10,10-10h116c5.52,0,10,4.48,10,10v16c0,5.52-4.48,10-10,10h-90Z"/>
  <path class="st0" d="M447.12,330.23c5.39,8.35,3,19.5-5.35,24.89-19.45,12.56-41.74,18.84-64.03,18.84s-44.58-6.28-64.02-18.84c-54.66-35.3-70.4-108.49-35.1-163.15,35.3-54.65,108.49-70.39,163.15-35.09,8.35,5.39,10.74,16.54,5.35,24.89-5.39,8.35-16.54,10.74-24.89,5.35-37.98-24.53-88.84-13.59-113.37,24.39-24.53,37.98-13.59,88.84,24.39,113.37,27.03,17.46,61.96,17.46,88.98,0,8.35-5.39,19.5-3,24.89,5.35Z"/>
</svg>